<svg width="172" height="37" viewBox="0 0 172 37" fill="none" xmlns="http://www.w3.org/2000/svg">
<ellipse cx="7.25871" cy="18.1467" rx="6.28605" ry="5.98919" fill="#079270"/>
<ellipse cx="7.25871" cy="30.1252" rx="6.28605" ry="5.98919" fill="#046A51"/>
<ellipse cx="19.831" cy="18.1467" rx="6.28605" ry="5.98919" fill="#0ABE98"/>
<ellipse cx="19.831" cy="30.1252" rx="6.28605" ry="5.98919" fill="#079270"/>
<ellipse cx="7.25969" cy="6.16839" rx="6.28605" ry="5.98919" fill="#0ABE98"/>
<ellipse cx="19.831" cy="6.16839" rx="6.28605" ry="5.98919" fill="#28F3C8"/>
<ellipse cx="32.4032" cy="6.16839" rx="6.28605" ry="5.98919" fill="#7DFFE0"/>
<ellipse cx="32.4032" cy="18.1467" rx="6.28605" ry="5.98919" fill="#28F3C8"/>
<ellipse cx="32.4032" cy="30.1252" rx="6.28605" ry="5.98919" fill="#0ABE98"/>
<path d="M46.3258 32.2562H49.4947V32.9724H45.4395V26.3307H46.3258V32.2562Z" fill="#383838"/>
<path d="M51.5255 32.9724H50.6759V28.0368H51.5255V32.9724ZM50.607 26.7276C50.607 26.5908 50.6483 26.4752 50.731 26.3809C50.8167 26.2867 50.9422 26.2395 51.1076 26.2395C51.2729 26.2395 51.3984 26.2867 51.4842 26.3809C51.5699 26.4752 51.6128 26.5908 51.6128 26.7276C51.6128 26.8645 51.5699 26.9785 51.4842 27.0697C51.3984 27.161 51.2729 27.2066 51.1076 27.2066C50.9422 27.2066 50.8167 27.161 50.731 27.0697C50.6483 26.9785 50.607 26.8645 50.607 26.7276Z" fill="#383838"/>
<path d="M52.918 30.4635C52.918 29.6881 53.0971 29.0753 53.4553 28.6252C53.8135 28.1721 54.2942 27.9455 54.8973 27.9455C55.4852 27.9455 55.949 28.1417 56.2889 28.534L56.3256 28.0368H57.1064V34.87H56.2567V32.5163C55.9138 32.8812 55.4576 33.0636 54.8882 33.0636C54.2881 33.0636 53.8089 32.8325 53.4507 32.3703C53.0955 31.905 52.918 31.2892 52.918 30.5228V30.4635ZM53.7676 30.5593C53.7676 31.125 53.887 31.569 54.1258 31.8913C54.3677 32.2137 54.6922 32.3748 55.0994 32.3748C55.6046 32.3748 55.9904 32.1528 56.2567 31.7089V29.2912C55.9873 28.8563 55.6046 28.6389 55.1086 28.6389C54.6983 28.6389 54.3723 28.8016 54.1304 29.127C53.8885 29.4493 53.7676 29.9268 53.7676 30.5593Z" fill="#383838"/>
<path d="M61.7733 32.4843C61.4426 32.8705 60.9574 33.0636 60.3175 33.0636C59.7878 33.0636 59.3837 32.9116 59.105 32.6075C58.8295 32.3003 58.6902 31.8472 58.6871 31.2481V28.0368H59.5367V31.2253C59.5367 31.9734 59.8429 32.3475 60.4552 32.3475C61.1043 32.3475 61.536 32.1072 61.7503 31.6267V28.0368H62.6V32.9724H61.7917L61.7733 32.4843Z" fill="#383838"/>
<path d="M65.0533 32.9724H64.2037V28.0368H65.0533V32.9724ZM64.1348 26.7276C64.1348 26.5908 64.1761 26.4752 64.2588 26.3809C64.3445 26.2867 64.47 26.2395 64.6354 26.2395C64.8007 26.2395 64.9262 26.2867 65.012 26.3809C65.0977 26.4752 65.1406 26.5908 65.1406 26.7276C65.1406 26.8645 65.0977 26.9785 65.012 27.0697C64.9262 27.161 64.8007 27.2066 64.6354 27.2066C64.47 27.2066 64.3445 27.161 64.2588 27.0697C64.1761 26.9785 64.1348 26.8645 64.1348 26.7276Z" fill="#383838"/>
<path d="M66.4458 30.4635C66.4458 29.7063 66.6264 29.0981 66.9877 28.6389C67.349 28.1767 67.822 27.9455 68.4068 27.9455C68.9885 27.9455 69.4493 28.1432 69.7891 28.5386V25.9658H70.6388V32.9724H69.858L69.8167 32.4433C69.4768 32.8568 69.0038 33.0636 68.3976 33.0636C67.822 33.0636 67.352 32.8295 66.9877 32.3612C66.6264 31.8928 66.4458 31.2816 66.4458 30.5274V30.4635ZM67.2954 30.5593C67.2954 31.1189 67.4117 31.5568 67.6444 31.8731C67.8771 32.1893 68.1986 32.3475 68.6089 32.3475C69.1477 32.3475 69.5411 32.1072 69.7891 31.6267V29.3596C69.535 28.8944 69.1446 28.6617 68.618 28.6617C68.2016 28.6617 67.8771 28.8214 67.6444 29.1407C67.4117 29.46 67.2954 29.9329 67.2954 30.5593Z" fill="#383838"/>
<path d="M73.1197 32.9724H72.27V28.0368H73.1197V32.9724ZM72.2011 26.7276C72.2011 26.5908 72.2425 26.4752 72.3251 26.3809C72.4109 26.2867 72.5364 26.2395 72.7017 26.2395C72.8671 26.2395 72.9926 26.2867 73.0783 26.3809C73.164 26.4752 73.2069 26.5908 73.2069 26.7276C73.2069 26.8645 73.164 26.9785 73.0783 27.0697C72.9926 27.161 72.8671 27.2066 72.7017 27.2066C72.5364 27.2066 72.4109 27.161 72.3251 27.0697C72.2425 26.9785 72.2011 26.8645 72.2011 26.7276Z" fill="#383838"/>
<path d="M75.8715 26.8416V28.0368H76.7992V28.6891H75.8715V31.7499C75.8715 31.9476 75.9128 32.0966 75.9955 32.1969C76.0782 32.2943 76.219 32.3429 76.418 32.3429C76.516 32.3429 76.6507 32.3247 76.8222 32.2882V32.9724C76.5987 33.0332 76.3813 33.0636 76.17 33.0636C75.7904 33.0636 75.5041 32.9496 75.3112 32.7215C75.1183 32.4934 75.0219 32.1696 75.0219 31.7499V28.6891H74.1172V28.0368H75.0219V26.8416H75.8715Z" fill="#383838"/>
<path d="M79.6567 31.7362L80.814 28.0368H81.7233L79.7256 33.7342C79.4163 34.5553 78.9249 34.9658 78.2514 34.9658L78.0906 34.9521L77.7737 34.8928V34.2086L78.0034 34.2268C78.2912 34.2268 78.5147 34.1691 78.6739 34.0535C78.8362 33.9379 78.9693 33.7266 79.0734 33.4194L79.2617 32.9177L77.489 28.0368H78.4167L79.6567 31.7362Z" fill="#383838"/>
<path d="M82.2432 32.5299C82.2432 32.384 82.2861 32.2623 82.3718 32.165C82.4606 32.0677 82.5922 32.019 82.7668 32.019C82.9413 32.019 83.0729 32.0677 83.1617 32.165C83.2536 32.2623 83.2995 32.384 83.2995 32.5299C83.2995 32.6698 83.2536 32.7869 83.1617 32.8812C83.0729 32.9755 82.9413 33.0226 82.7668 33.0226C82.5922 33.0226 82.4606 32.9755 82.3718 32.8812C82.2861 32.7869 82.2432 32.6698 82.2432 32.5299Z" fill="#383838"/>
<path d="M92.0777 27.0515H89.9284V32.9724H89.0512V27.0515H86.9065V26.3307H92.0777V27.0515Z" fill="#383838"/>
<path d="M94.7744 33.0636C94.1009 33.0636 93.5528 32.8447 93.1303 32.4068C92.7078 31.9658 92.4965 31.3774 92.4965 30.6414V30.4863C92.4965 29.9967 92.5899 29.5603 92.7767 29.1772C92.9665 28.791 93.2298 28.4899 93.5666 28.274C93.9064 28.055 94.2738 27.9455 94.6688 27.9455C95.3148 27.9455 95.8169 28.1569 96.1752 28.5796C96.5334 29.0023 96.7125 29.6075 96.7125 30.3951V30.7464H93.3461C93.3584 31.2329 93.5008 31.6267 93.7733 31.9278C94.0488 32.2258 94.3978 32.3748 94.8204 32.3748C95.1204 32.3748 95.3745 32.314 95.5827 32.1924C95.7909 32.0707 95.9731 31.9096 96.1292 31.7089L96.6482 32.1103C96.2318 32.7459 95.6072 33.0636 94.7744 33.0636ZM94.6688 28.6389C94.3259 28.6389 94.0381 28.7636 93.8054 29.013C93.5727 29.2593 93.4288 29.606 93.3737 30.053H95.8629V29.9891C95.8384 29.5603 95.722 29.2289 95.5138 28.9947C95.3056 28.7575 95.024 28.6389 94.6688 28.6389Z" fill="#383838"/>
<path d="M99.9282 32.3748C100.231 32.3748 100.496 32.2836 100.723 32.1011C100.949 31.9187 101.075 31.6906 101.099 31.4169H101.903C101.888 31.6997 101.79 31.9689 101.609 32.2243C101.428 32.4798 101.187 32.6835 100.883 32.8356C100.583 32.9876 100.265 33.0636 99.9282 33.0636C99.2516 33.0636 98.7127 32.8401 98.3116 32.3931C97.9136 31.943 97.7146 31.3287 97.7146 30.5502V30.4088C97.7146 29.9283 97.8034 29.501 97.9809 29.127C98.1585 28.7529 98.4127 28.4625 98.7433 28.2557C99.077 28.0489 99.4705 27.9455 99.9236 27.9455C100.481 27.9455 100.943 28.1113 101.311 28.4428C101.681 28.7742 101.878 29.2045 101.903 29.7337H101.099C101.075 29.4144 100.952 29.1528 100.732 28.9491C100.515 28.7423 100.245 28.6389 99.9236 28.6389C99.4919 28.6389 99.1566 28.794 98.9178 29.1042C98.6821 29.4113 98.5642 29.8568 98.5642 30.4407V30.6004C98.5642 31.1691 98.6821 31.607 98.9178 31.9141C99.1536 32.2213 99.4904 32.3748 99.9282 32.3748Z" fill="#383838"/>
<path d="M103.943 28.6343C104.32 28.1751 104.809 27.9455 105.413 27.9455C106.463 27.9455 106.992 28.534 107.002 29.7109V32.9724H106.152V29.7063C106.149 29.3505 106.066 29.0875 105.904 28.9172C105.745 28.7469 105.495 28.6617 105.155 28.6617C104.88 28.6617 104.638 28.7347 104.43 28.8807C104.222 29.0266 104.059 29.2182 103.943 29.4554V32.9724H103.093V25.9658H103.943V28.6343Z" fill="#383838"/>
<path d="M109.313 28.0368L109.34 28.6572C109.72 28.1827 110.216 27.9455 110.828 27.9455C111.878 27.9455 112.408 28.534 112.417 29.7109V32.9724H111.568V29.7063C111.564 29.3505 111.482 29.0875 111.32 28.9172C111.16 28.7469 110.911 28.6617 110.571 28.6617C110.295 28.6617 110.054 28.7347 109.845 28.8807C109.637 29.0266 109.475 29.2182 109.359 29.4554V32.9724H108.509V28.0368H109.313Z" fill="#383838"/>
<path d="M113.709 30.459C113.709 29.9755 113.803 29.5406 113.993 29.1544C114.186 28.7682 114.453 28.4701 114.792 28.2603C115.135 28.0505 115.526 27.9455 115.964 27.9455C116.64 27.9455 117.187 28.1782 117.603 28.6435C118.023 29.1087 118.232 29.7276 118.232 30.5V30.5593C118.232 31.0398 118.139 31.4716 117.952 31.8548C117.768 32.235 117.504 32.5315 117.158 32.7443C116.815 32.9572 116.42 33.0636 115.973 33.0636C115.299 33.0636 114.753 32.831 114.333 32.3657C113.917 31.9004 113.709 31.2846 113.709 30.5183V30.459ZM114.563 30.5593C114.563 31.1067 114.69 31.5462 114.944 31.8776C115.201 32.2091 115.544 32.3748 115.973 32.3748C116.404 32.3748 116.747 32.2076 117.001 31.8731C117.256 31.5355 117.383 31.0641 117.383 30.459C117.383 29.9177 117.253 29.4798 116.992 29.1452C116.735 28.8077 116.392 28.6389 115.964 28.6389C115.544 28.6389 115.206 28.8046 114.949 29.1361C114.691 29.4676 114.563 29.942 114.563 30.5593Z" fill="#383838"/>
<path d="M120.456 32.9724H119.606V25.9658H120.456V32.9724Z" fill="#383838"/>
<path d="M121.83 30.459C121.83 29.9755 121.925 29.5406 122.115 29.1544C122.308 28.7682 122.574 28.4701 122.914 28.2603C123.257 28.0505 123.647 27.9455 124.085 27.9455C124.762 27.9455 125.308 28.1782 125.725 28.6435C126.144 29.1087 126.354 29.7276 126.354 30.5V30.5593C126.354 31.0398 126.26 31.4716 126.074 31.8548C125.89 32.235 125.625 32.5315 125.279 32.7443C124.936 32.9572 124.541 33.0636 124.094 33.0636C123.421 33.0636 122.874 32.831 122.455 32.3657C122.038 31.9004 121.83 31.2846 121.83 30.5183V30.459ZM122.684 30.5593C122.684 31.1067 122.811 31.5462 123.065 31.8776C123.323 32.2091 123.666 32.3748 124.094 32.3748C124.526 32.3748 124.869 32.2076 125.123 31.8731C125.377 31.5355 125.504 31.0641 125.504 30.459C125.504 29.9177 125.374 29.4798 125.114 29.1452C124.857 28.8077 124.514 28.6389 124.085 28.6389C123.666 28.6389 123.327 28.8046 123.07 29.1361C122.813 29.4676 122.684 29.942 122.684 30.5593Z" fill="#383838"/>
<path d="M127.452 30.4635C127.452 29.6942 127.631 29.0829 127.99 28.6298C128.348 28.1736 128.822 27.9455 129.413 27.9455C130.019 27.9455 130.493 28.1584 130.832 28.5842L130.874 28.0368H131.65V32.8538C131.65 33.4924 131.458 33.9957 131.076 34.3637C130.696 34.7317 130.185 34.9156 129.542 34.9156C129.184 34.9156 128.833 34.8396 128.49 34.6876C128.147 34.5355 127.885 34.3272 127.705 34.0626L128.146 33.5563C128.51 34.0033 128.956 34.2268 129.482 34.2268C129.895 34.2268 130.217 34.1113 130.447 33.8802C130.679 33.649 130.796 33.3237 130.796 32.904V32.4798C130.456 32.869 129.992 33.0636 129.404 33.0636C128.822 33.0636 128.351 32.831 127.99 32.3657C127.631 31.9004 127.452 31.2664 127.452 30.4635ZM128.306 30.5593C128.306 31.1158 128.421 31.5538 128.651 31.8731C128.881 32.1893 129.202 32.3475 129.615 32.3475C130.151 32.3475 130.545 32.1057 130.796 31.6222V29.3688C130.535 28.8974 130.145 28.6617 129.625 28.6617C129.211 28.6617 128.888 28.8214 128.655 29.1407C128.423 29.46 128.306 29.9329 128.306 30.5593Z" fill="#383838"/>
<path d="M134.797 31.7362L135.954 28.0368H136.863L134.866 33.7342C134.556 34.5553 134.065 34.9658 133.391 34.9658L133.231 34.9521L132.914 34.8928V34.2086L133.143 34.2268C133.431 34.2268 133.655 34.1691 133.814 34.0535C133.976 33.9379 134.109 33.7266 134.213 33.4194L134.402 32.9177L132.629 28.0368H133.557L134.797 31.7362Z" fill="#383838"/>
<path d="M137.383 32.5299C137.383 32.384 137.426 32.2623 137.512 32.165C137.601 32.0677 137.732 32.019 137.907 32.019C138.081 32.019 138.213 32.0677 138.302 32.165C138.394 32.2623 138.439 32.384 138.439 32.5299C138.439 32.6698 138.394 32.7869 138.302 32.8812C138.213 32.9755 138.081 33.0226 137.907 33.0226C137.732 33.0226 137.601 32.9755 137.512 32.8812C137.426 32.7869 137.383 32.6698 137.383 32.5299Z" fill="#383838"/>
<path d="M53.7442 20.9691C57.9739 20.9691 60.8925 18.9272 60.8925 15.6026C60.8925 13.1419 58.7155 11.3095 56.0513 11.0739V10.8383C58.0425 10.5372 59.9174 8.78332 59.9174 6.79382C59.9174 3.88809 57.3147 2.08182 53.5519 2.08182H45.4395V20.9691H53.7442ZM49.1509 4.71269H52.6868C54.8291 4.71269 56.2472 5.69435 56.2472 7.38281C56.2472 9.11055 54.7467 10.0399 52.2336 10.0399H49.1509V4.71269ZM49.1509 18.3382V12.4351H52.7966C55.502 12.4351 57.0986 13.443 57.0986 15.367C57.0986 17.3042 55.5432 18.3382 52.9339 18.3382H49.1509Z" fill="#383838"/>
<path d="M62.7265 7.83128H66.2183C66.2183 5.84178 67.4232 4.32002 69.5792 4.32002C71.6529 4.32002 72.8888 5.64199 72.8888 7.35664C72.8888 8.79641 72.2846 9.69954 69.7852 12.1079L62.9188 18.6916V20.9691H76.8475V18.168H67.7253V17.9455L72.1509 13.9534C75.5566 10.7728 76.5591 9.24143 76.5591 7.0425C76.5591 3.90118 73.7128 1.61062 69.7715 1.61062C65.6379 1.61062 62.7265 4.25802 62.7265 7.83128Z" fill="#383838"/>
<path d="M88.353 20.9691C92.5827 20.9691 95.5013 18.9272 95.5013 15.6026C95.5013 13.1419 93.3243 11.3095 90.6602 11.0739V10.8383C92.6514 10.5372 94.5263 8.78332 94.5263 6.79382C94.5263 3.88809 91.9236 2.08182 88.1608 2.08182H80.0483V20.9691H88.353ZM83.7598 4.71269H87.2956C89.4379 4.71269 90.856 5.69435 90.856 7.38281C90.856 9.11055 89.3555 10.0399 86.8424 10.0399H83.7598V4.71269ZM83.7598 18.3382V12.4351H87.4055C90.1108 12.4351 91.7075 13.443 91.7075 15.367C91.7075 17.3042 90.152 18.3382 87.5428 18.3382H83.7598Z" fill="#383838"/>
<path d="M97.7098 20.9691H101.116V12.6576C101.116 10.6419 102.485 9.49357 104.696 9.49357C105.273 9.49357 106.179 9.58519 106.44 9.67682L107.114 6.55822C106.798 6.47968 105.52 6.42733 105.026 6.42733C103.089 6.42733 101.469 7.47444 101.057 8.88803H100.992V6.50241H97.7098V20.9691Z" fill="#383838"/>
<path d="M114.214 21.257C118.705 21.257 121.606 18.456 121.606 13.8094C121.606 9.18908 118.691 6.38806 114.214 6.38806C109.751 6.38806 106.822 9.20217 106.822 13.8094C106.822 18.456 109.71 21.257 114.214 21.257ZM114.214 18.4395C111.838 18.4395 110.31 16.8461 110.31 13.8225C110.31 10.799 111.838 9.20562 114.214 9.20562C116.576 9.20562 118.104 10.799 118.104 13.8225C118.104 16.8461 116.59 18.4395 114.214 18.4395Z" fill="#383838"/>
<path d="M127.522 12.5267H127.457V0.96582H124.052V20.9691H127.457V15.9429L128.497 14.9516L133.149 20.9691H137.606L131.206 12.8016L137.194 6.66293H133.239L127.522 12.5267Z" fill="#383838"/>
<path d="M147.903 16.7345C147.408 17.8077 146.241 18.7309 144.552 18.7309C142.314 18.7309 141.04 17.2126 140.958 14.7911L140.789 14.621H151.45V13.5869C151.45 9.09746 148.713 6.38806 144.428 6.38806C140.075 6.38806 137.201 9.2807 137.201 13.8749C137.201 18.456 140.034 21.257 144.456 21.257C147.999 21.257 150.681 19.4735 151.299 16.895L147.903 16.7345ZM144.415 8.91421C146.461 8.91421 147.807 10.2885 147.875 12.4613H140.971C141.122 10.3147 142.382 8.91421 144.415 8.91421Z" fill="#383838"/>
<path d="M153.744 20.9691H157.15V12.6576C157.15 10.6419 158.519 9.49357 160.73 9.49357C161.307 9.49357 162.214 9.58519 162.474 9.67682L163.148 6.55822C162.832 6.47968 161.554 6.42733 161.06 6.42733C159.124 6.42733 157.503 7.47444 157.091 8.88803H157.026V6.50241H153.744V20.9691Z" fill="#383838"/>
<path d="M168.173 4.3698V2.61638H168.982V2.11035H166.745V2.61638H167.554V4.3698H168.173Z" fill="#383838"/>
<path d="M171.744 4.3698V2.11844H171.044L170.554 3.40331H170.524L170.027 2.11844H169.356V4.3698H169.929V2.97138H169.958L170.367 4.17212H170.733L171.142 2.97138H171.171V4.3698H171.744Z" fill="#383838"/>
</svg>
